<?xml version="1.0" encoding="UTF-8" standalone="no"?>
<!DOCTYPE svg PUBLIC "-//W3C//DTD SVG 20010904//EN"
              "http://www.w3.org/TR/2001/REC-SVG-20010904/DTD/svg10.dtd">

<svg xmlns="http://www.w3.org/2000/svg"
     width="100px" height="97px"
     viewBox="0 0 100 97">
  <path id="Imported Path" fill="#0098ba"
        d="M 29.16,33.68
           C 28.39,33.35 27.54,33.17 26.65,33.17
             23.91,33.17 21.56,34.86 20.58,37.25
             20.26,38.03 20.08,38.88 20.08,39.78
             20.08,42.53 21.75,44.88 24.14,45.87
             24.91,46.20 25.76,46.37 26.65,46.37
             29.39,46.37 31.73,44.69 32.72,42.30
             33.04,41.52 33.22,40.67 33.22,39.77
             33.22,37.02 31.54,34.67 29.16,33.68
             29.16,33.68 29.16,33.68 29.16,33.68 Z
           M 42.84,0.50
           C 42.07,0.18 41.22,-0.00 40.33,-0.00
             37.59,-0.00 35.24,1.68 34.26,4.07
             33.94,4.85 33.76,5.71 33.76,6.60
             33.76,9.35 35.43,11.71 37.81,12.70
             38.59,13.02 39.44,13.20 40.33,13.20
             43.07,13.20 45.41,11.52 46.40,9.12
             46.72,8.35 46.90,7.49 46.90,6.60
             46.90,3.85 45.22,1.49 42.84,0.50
             42.84,0.50 42.84,0.50 42.84,0.50 Z
           M 75.86,14.24
           C 75.09,13.92 74.24,13.74 73.35,13.74
             70.61,13.74 68.27,15.42 67.28,17.82
             66.96,18.59 66.78,19.45 66.78,20.34
             66.78,23.09 68.46,25.45 70.84,26.44
             71.61,26.76 72.46,26.94 73.35,26.94
             76.09,26.94 78.44,25.26 79.42,22.87
             79.74,22.09 79.92,21.24 79.92,20.34
             79.92,17.59 78.25,15.23 75.86,14.24
             75.86,14.24 75.86,14.24 75.86,14.24 Z
           M 62.19,47.42
           C 61.41,47.09 60.56,46.92 59.67,46.92
             56.93,46.92 54.59,48.60 53.60,50.99
             53.28,51.77 53.10,52.62 53.10,53.52
             53.10,56.27 54.78,58.62 57.16,59.61
             57.93,59.94 58.78,60.12 59.67,60.12
             62.41,60.12 64.76,58.43 65.74,56.04
             66.06,55.26 66.24,54.41 66.24,53.52
             66.24,50.77 64.57,48.41 62.19,47.42
             62.19,47.42 62.19,47.42 62.19,47.42 Z
           M 32.72,17.81
           C 31.73,15.42 29.38,13.74 26.65,13.74
             25.75,13.74 24.90,13.92 24.13,14.24
             21.75,15.24 20.08,17.59 20.08,20.34
             20.08,21.24 20.26,22.09 20.58,22.87
             21.57,25.26 23.91,26.94 26.65,26.94
             27.54,26.94 28.40,26.76 29.17,26.44
             31.55,25.44 33.22,23.09 33.22,20.34
             33.22,19.44 33.04,18.59 32.72,17.82
             32.72,17.82 32.72,17.81 32.72,17.81 Z
           M 65.74,4.07
           C 64.75,1.68 62.41,-0.00 59.67,-0.00
             58.78,-0.00 57.93,0.18 57.15,0.50
             54.77,1.49 53.10,3.85 53.10,6.60
             53.10,7.50 53.28,8.35 53.60,9.13
             54.59,11.52 56.94,13.20 59.67,13.20
             60.57,13.20 61.42,13.02 62.19,12.70
             64.57,11.70 66.24,9.35 66.24,6.60
             66.24,5.70 66.06,4.85 65.74,4.07
             65.74,4.07 65.74,4.07 65.74,4.07 Z
           M 79.42,37.24
           C 78.43,34.85 76.09,33.17 73.35,33.17
             72.46,33.17 71.60,33.35 70.83,33.68
             68.45,34.67 66.78,37.03 66.78,39.77
             66.78,40.67 66.96,41.53 67.28,42.30
             68.27,44.69 70.62,46.37 73.35,46.37
             74.25,46.37 75.10,46.20 75.87,45.87
             78.25,44.88 79.92,42.52 79.92,39.77
             79.92,38.88 79.74,38.02 79.42,37.25
             79.42,37.25 79.42,37.24 79.42,37.24 Z
           M 46.40,50.99
           C 45.41,48.60 43.06,46.91 40.33,46.91
             39.43,46.91 38.58,47.09 37.81,47.42
             35.43,48.41 33.76,50.77 33.76,53.52
             33.76,54.41 33.94,55.27 34.26,56.05
             35.25,58.44 37.59,60.12 40.33,60.12
             41.22,60.12 42.07,59.94 42.85,59.61
             45.22,58.62 46.90,56.26 46.90,53.52
             46.90,52.62 46.72,51.76 46.40,50.99
             46.40,50.99 46.40,50.99 46.40,50.99 Z
           M 95.27,83.12
           C 95.72,83.75 95.95,84.67 95.95,85.87
             95.95,87.08 95.72,88.00 95.27,88.63
             94.82,89.26 94.16,89.58 93.30,89.58
             92.44,89.58 91.79,89.26 91.33,88.63
             90.88,88.00 90.65,87.08 90.65,85.87
             90.65,84.67 90.88,83.75 91.33,83.12
             91.79,82.48 92.44,82.17 93.30,82.17
             94.16,82.17 94.82,82.48 95.27,83.12 Z
           M 95.95,97.00
           C 95.95,97.00 100.00,97.00 100.00,97.00
             100.00,97.00 100.00,79.53 100.00,79.53
             100.00,79.53 95.95,79.53 95.95,79.53
             95.95,79.53 95.95,81.41 95.95,81.41
             95.40,80.66 94.79,80.12 94.12,79.77
             93.45,79.42 92.68,79.25 91.80,79.25
             90.25,79.25 88.98,79.87 87.98,81.10
             86.98,82.33 86.48,83.92 86.48,85.87
             86.48,87.82 86.98,89.42 87.98,90.66
             88.98,91.90 90.25,92.51 91.80,92.51
             92.68,92.51 93.45,92.34 94.12,92.00
             94.79,91.65 95.40,91.10 95.95,90.36
             95.95,90.36 95.95,97.00 95.95,97.00 Z
           M 80.00,77.91
           C 80.00,77.91 84.03,77.91 84.03,77.91
             84.03,77.91 84.03,74.61 84.03,74.61
             84.03,74.61 80.00,74.61 80.00,74.61
             80.00,74.61 80.00,77.91 80.00,77.91 Z
           M 80.00,92.19
           C 80.00,92.19 84.03,92.19 84.03,92.19
             84.03,92.19 84.03,79.53 84.03,79.53
             84.03,79.53 80.00,79.53 80.00,79.53
             80.00,79.53 80.00,92.19 80.00,92.19 Z
           M 76.79,84.48
           C 76.79,82.77 76.41,81.47 75.65,80.57
             74.90,79.68 73.80,79.23 72.35,79.23
             71.52,79.23 70.77,79.41 70.09,79.76
             69.40,80.11 68.76,80.65 68.15,81.39
             68.15,81.39 68.15,79.53 68.15,79.53
             68.15,79.53 64.13,79.53 64.13,79.53
             64.13,79.53 64.13,92.19 64.13,92.19
             64.13,92.19 68.15,92.19 68.15,92.19
             68.15,92.19 68.15,85.96 68.15,85.96
             68.15,84.81 68.39,83.91 68.87,83.26
             69.35,82.61 70.01,82.28 70.85,82.28
             71.20,82.28 71.50,82.35 71.77,82.51
             72.04,82.65 72.26,82.85 72.41,83.12
             72.53,83.31 72.62,83.62 72.66,84.03
             72.71,84.44 72.74,85.20 72.74,86.29
             72.74,86.29 72.74,90.93 72.74,90.93
             72.74,90.93 72.74,92.19 72.74,92.19
             72.74,92.19 76.79,92.19 76.79,92.19
             76.79,92.19 76.79,84.48 76.79,84.48
             76.79,84.48 76.79,84.48 76.79,84.48 Z
           M 54.01,75.94
           C 54.01,75.94 54.01,79.53 54.01,79.53
             54.01,79.53 52.01,79.53 52.01,79.53
             52.01,79.53 52.01,82.43 52.01,82.43
             52.01,82.43 54.01,82.43 54.01,82.43
             54.01,82.43 54.01,87.79 54.01,87.79
             54.01,89.39 54.34,90.52 55.00,91.19
             55.67,91.86 56.80,92.19 58.39,92.19
             58.39,92.19 61.84,92.19 61.84,92.19
             61.84,92.19 61.84,89.29 61.84,89.29
             61.84,89.29 59.77,89.29 59.77,89.29
             59.08,89.29 58.62,89.19 58.39,88.99
             58.16,88.78 58.04,88.38 58.04,87.79
             58.04,87.79 58.04,82.43 58.04,82.43
             58.04,82.43 62.19,82.43 62.19,82.43
             62.19,82.43 62.19,79.53 62.19,79.53
             62.19,79.53 58.04,79.53 58.04,79.53
             58.04,79.53 58.04,75.94 58.04,75.94
             58.04,75.94 54.01,75.94 54.01,75.94 Z
           M 51.15,85.83
           C 51.15,83.82 50.55,82.22 49.36,81.03
             48.17,79.83 46.59,79.23 44.61,79.23
             42.44,79.23 40.73,79.82 39.48,81.00
             38.25,82.18 37.63,83.81 37.63,85.87
             37.63,87.97 38.26,89.61 39.52,90.77
             40.79,91.93 42.56,92.51 44.84,92.51
             45.79,92.51 46.74,92.42 47.69,92.23
             48.65,92.05 49.60,91.78 50.55,91.42
             50.55,91.42 50.55,88.30 50.55,88.30
             49.61,88.81 48.70,89.20 47.81,89.45
             46.92,89.70 46.06,89.83 45.21,89.83
             44.16,89.83 43.34,89.59 42.76,89.11
             42.17,88.64 41.83,87.93 41.73,86.98
             41.73,86.98 51.15,86.98 51.15,86.98
             51.15,86.98 51.15,85.83 51.15,85.83
             51.15,85.83 51.15,85.83 51.15,85.83 Z
           M 41.78,84.48
           C 41.90,83.65 42.20,83.02 42.69,82.58
             43.18,82.14 43.81,81.92 44.59,81.92
             45.31,81.92 45.89,82.15 46.33,82.63
             46.78,83.10 47.01,83.71 47.01,84.48
             47.01,84.48 41.78,84.48 41.78,84.48 Z
           M 36.08,85.83
           C 36.08,83.82 35.48,82.22 34.29,81.03
             33.10,79.83 31.52,79.23 29.54,79.23
             27.37,79.23 25.66,79.82 24.42,81.00
             23.18,82.18 22.56,83.81 22.56,85.87
             22.56,87.97 23.19,89.61 24.45,90.77
             25.72,91.93 27.49,92.51 29.77,92.51
             30.72,92.51 31.67,92.42 32.62,92.23
             33.58,92.05 34.53,91.78 35.48,91.42
             35.48,91.42 35.48,88.30 35.48,88.30
             34.54,88.81 33.63,89.20 32.74,89.45
             31.85,89.70 30.99,89.83 30.14,89.83
             29.09,89.83 28.27,89.59 27.69,89.11
             27.10,88.64 26.76,87.93 26.66,86.98
             26.66,86.98 36.08,86.98 36.08,86.98
             36.08,86.98 36.08,85.83 36.08,85.83
             36.08,85.83 36.08,85.83 36.08,85.83 Z
           M 26.71,84.48
           C 26.83,83.65 27.13,83.02 27.62,82.58
             28.11,82.14 28.74,81.92 29.52,81.92
             30.24,81.92 30.82,82.15 31.26,82.63
             31.71,83.10 31.94,83.71 31.94,84.48
             31.94,84.48 26.71,84.48 26.71,84.48 Z
           M 11.70,81.64
           C 11.35,80.87 10.84,80.28 10.18,79.86
             9.51,79.44 8.74,79.23 7.87,79.23
             7.10,79.23 6.39,79.41 5.75,79.77
             5.11,80.13 4.54,80.67 4.05,81.39
             4.05,81.39 4.05,79.53 4.05,79.53
             4.05,79.53 0.00,79.53 0.00,79.53
             0.00,79.53 0.00,92.19 0.00,92.19
             0.00,92.19 4.05,92.19 4.05,92.19
             4.05,92.19 4.05,85.96 4.05,85.96
             4.05,84.78 4.26,83.87 4.68,83.24
             5.10,82.60 5.69,82.28 6.47,82.28
             7.08,82.28 7.51,82.48 7.75,82.89
             7.99,83.29 8.11,84.19 8.11,85.59
             8.11,85.59 8.11,92.19 8.11,92.19
             8.11,92.19 12.16,92.19 12.16,92.19
             12.16,92.19 12.16,85.97 12.16,85.97
             12.17,84.78 12.39,83.86 12.80,83.23
             13.22,82.60 13.81,82.28 14.57,82.28
             15.16,82.28 15.58,82.48 15.85,82.89
             16.11,83.29 16.24,83.94 16.24,84.83
             16.24,85.03 16.24,85.18 16.23,85.28
             16.23,85.39 16.22,85.49 16.22,85.59
             16.22,85.59 16.22,92.19 16.22,92.19
             16.22,92.19 20.27,92.19 20.27,92.19
             20.27,92.19 20.27,84.48 20.27,84.48
             20.27,82.77 19.89,81.47 19.13,80.57
             18.37,79.68 17.27,79.23 15.82,79.23
             14.98,79.23 14.21,79.44 13.51,79.85
             12.81,80.26 12.21,80.85 11.70,81.64
             11.70,81.64 11.70,81.64 11.70,81.64 Z" />
</svg>
